{
    "asset" : {
        "generator" : "Khronos glTF Blender I/O v1.8.19",
        "version" : "2.0"
    },
    "scene" : 0,
    "scenes" : [
        {
            "name" : "Scene",
            "nodes" : [
                0
            ]
        }
    ],
    "nodes" : [
        {
            "mesh" : 0,
            "name" : "\u98de\u673a01"
        }
    ],
    "materials" : [
        {
            "doubleSided" : true,
            "name" : "\u98de\u673a\u8d34\u56fe",
            "pbrMetallicRoughness" : {
                "baseColorTexture" : {
                    "index" : 0
                },
                "metallicFactor" : 0,
                "roughnessFactor" : 0.5
            }
        },
        {
            "doubleSided" : true,
            "name" : "Material #52",
            "pbrMetallicRoughness" : {
                "baseColorTexture" : {
                    "index" : 1
                },
                "metallicFactor" : 0,
                "roughnessFactor" : 0.5
            }
        },
        {
            "doubleSided" : true,
            "name" : "\u98de\u673a\u8d34\u56fe.001",
            "pbrMetallicRoughness" : {
                "baseColorTexture" : {
                    "index" : 2
                },
                "metallicFactor" : 0,
                "roughnessFactor" : 0.5
            }
        },
        {
            "doubleSided" : true,
            "name" : "\u8f6e\u5b50",
            "pbrMetallicRoughness" : {
                "baseColorTexture" : {
                    "index" : 3
                },
                "metallicFactor" : 0,
                "roughnessFactor" : 0.5
            }
        },
        {
            "doubleSided" : true,
            "name" : "\u8d77\u843d\u67b62*",
            "pbrMetallicRoughness" : {
                "baseColorTexture" : {
                    "index" : 4
                },
                "metallicFactor" : 0,
                "roughnessFactor" : 0.5
            }
        },
        {
            "doubleSided" : true,
            "name" : "Material #22",
            "pbrMetallicRoughness" : {
                "baseColorFactor" : [
                    0.36078399419784546,
                    0.36078399419784546,
                    0.36078399419784546,
                    1
                ],
                "metallicFactor" : 0,
                "roughnessFactor" : 0.5
            }
        },
        {
            "doubleSided" : true,
            "name" : "lunzi cm",
            "pbrMetallicRoughness" : {
                "baseColorTexture" : {
                    "index" : 5
                },
                "metallicFactor" : 0,
                "roughnessFactor" : 0.5
            }
        },
        {
            "doubleSided" : true,
            "name" : "\u8d77\u843d\u67b61",
            "pbrMetallicRoughness" : {
                "baseColorTexture" : {
                    "index" : 6
                },
                "metallicFactor" : 0,
                "roughnessFactor" : 0.5
            }
        },
        {
            "doubleSided" : true,
            "name" : "\u8d77\u843d\u67b62",
            "pbrMetallicRoughness" : {
                "baseColorTexture" : {
                    "index" : 7
                },
                "metallicFactor" : 0,
                "roughnessFactor" : 0.5
            }
        },
        {
            "doubleSided" : true,
            "name" : "456465465",
            "pbrMetallicRoughness" : {
                "baseColorTexture" : {
                    "index" : 8
                },
                "metallicFactor" : 0,
                "roughnessFactor" : 0.5
            }
        }
    ],
    "meshes" : [
        {
            "name" : "Obj3d66-596845-9-344",
            "primitives" : [
                {
                    "attributes" : {
                        "POSITION" : 0,
                        "NORMAL" : 1,
                        "TEXCOORD_0" : 2
                    },
                    "indices" : 3,
                    "material" : 0
                },
                {
                    "attributes" : {
                        "POSITION" : 4,
                        "NORMAL" : 5,
                        "TEXCOORD_0" : 6
                    },
                    "indices" : 7,
                    "material" : 1
                },
                {
                    "attributes" : {
                        "POSITION" : 8,
                        "NORMAL" : 9,
                        "TEXCOORD_0" : 10
                    },
                    "indices" : 11,
                    "material" : 2
                },
                {
                    "attributes" : {
                        "POSITION" : 12,
                        "NORMAL" : 13,
                        "TEXCOORD_0" : 14
                    },
                    "indices" : 15,
                    "material" : 3
                },
                {
                    "attributes" : {
                        "POSITION" : 16,
                        "NORMAL" : 17,
                        "TEXCOORD_0" : 18
                    },
                    "indices" : 19,
                    "material" : 4
                },
                {
                    "attributes" : {
                        "POSITION" : 20,
                        "NORMAL" : 21,
                        "TEXCOORD_0" : 22
                    },
                    "indices" : 23,
                    "material" : 5
                },
                {
                    "attributes" : {
                        "POSITION" : 24,
                        "NORMAL" : 25,
                        "TEXCOORD_0" : 26
                    },
                    "indices" : 27,
                    "material" : 6
                },
                {
                    "attributes" : {
                        "POSITION" : 28,
                        "NORMAL" : 29,
                        "TEXCOORD_0" : 30
                    },
                    "indices" : 31,
                    "material" : 7
                },
                {
                    "attributes" : {
                        "POSITION" : 32,
                        "NORMAL" : 33,
                        "TEXCOORD_0" : 34
                    },
                    "indices" : 35,
                    "material" : 8
                },
                {
                    "attributes" : {
                        "POSITION" : 36,
                        "NORMAL" : 37,
                        "TEXCOORD_0" : 38
                    },
                    "indices" : 39,
                    "material" : 9
                }
            ]
        }
    ],
    "textures" : [
        {
            "sampler" : 0,
            "source" : 0
        },
        {
            "sampler" : 0,
            "source" : 1
        },
        {
            "sampler" : 0,
            "source" : 2
        },
        {
            "sampler" : 0,
            "source" : 3
        },
        {
            "sampler" : 0,
            "source" : 4
        },
        {
            "sampler" : 0,
            "source" : 5
        },
        {
            "sampler" : 0,
            "source" : 6
        },
        {
            "sampler" : 0,
            "source" : 4
        },
        {
            "sampler" : 0,
            "source" : 7
        }
    ],
    "images" : [
        {
            "bufferView" : 4,
            "mimeType" : "image/png",
            "name" : "3d66Model-596845-files-11"
        },
        {
            "bufferView" : 9,
            "mimeType" : "image/png",
            "name" : "3d66Model-596845-files-12"
        },
        {
            "bufferView" : 14,
            "mimeType" : "image/jpeg",
            "name" : "3d66Model-596845-files-10"
        },
        {
            "bufferView" : 19,
            "mimeType" : "image/jpeg",
            "name" : "3d66Model-596845-files-7"
        },
        {
            "bufferView" : 24,
            "mimeType" : "image/png",
            "name" : "3d66Model-596845-files-6"
        },
        {
            "bufferView" : 33,
            "mimeType" : "image/jpeg",
            "name" : "3d66Model-596845-files-8"
        },
        {
            "bufferView" : 38,
            "mimeType" : "image/png",
            "name" : "3d66Model-596845-files-5"
        },
        {
            "bufferView" : 47,
            "mimeType" : "image/png",
            "name" : "3d66Model-596845-files-4"
        }
    ],
    "accessors" : [
        {
            "bufferView" : 0,
            "componentType" : 5126,
            "count" : 2243,
            "max" : [
                9.427823066711426,
                8.708730697631836,
                9.578198432922363
            ],
            "min" : [
                -9.325088500976562,
                0.25436779856681824,
                -6.658185005187988
            ],
            "type" : "VEC3"
        },
        {
            "bufferView" : 1,
            "componentType" : 5126,
            "count" : 2243,
            "type" : "VEC3"
        },
        {
            "bufferView" : 2,
            "componentType" : 5126,
            "count" : 2243,
            "type" : "VEC2"
        },
        {
            "bufferView" : 3,
            "componentType" : 5123,
            "count" : 6435,
            "type" : "SCALAR"
        },
        {
            "bufferView" : 5,
            "componentType" : 5126,
            "count" : 2225,
            "max" : [
                6.437728404998779,
                8.708728790283203,
                9.485076904296875
            ],
            "min" : [
                -9.427841186523438,
                0.25438305735588074,
                -9.578198432922363
            ],
            "type" : "VEC3"
        },
        {
            "bufferView" : 6,
            "componentType" : 5126,
            "count" : 2225,
            "type" : "VEC3"
        },
        {
            "bufferView" : 7,
            "componentType" : 5126,
            "count" : 2225,
            "type" : "VEC2"
        },
        {
            "bufferView" : 8,
            "componentType" : 5123,
            "count" : 6477,
            "type" : "SCALAR"
        },
        {
            "bufferView" : 10,
            "componentType" : 5126,
            "count" : 12,
            "max" : [
                9.427841186523438,
                3.6332404613494873,
                -3.8292131423950195
            ],
            "min" : [
                8.336657524108887,
                3.422403335571289,
                -4.279285430908203
            ],
            "type" : "VEC3"
        },
        {
            "bufferView" : 11,
            "componentType" : 5126,
            "count" : 12,
            "type" : "VEC3"
        },
        {
            "bufferView" : 12,
            "componentType" : 5126,
            "count" : 12,
            "type" : "VEC2"
        },
        {
            "bufferView" : 13,
            "componentType" : 5123,
            "count" : 12,
            "type" : "SCALAR"
        },
        {
            "bufferView" : 15,
            "componentType" : 5126,
            "count" : 1440,
            "max" : [
                -0.06569647789001465,
                0.6957132816314697,
                7.306835174560547
            ],
            "min" : [
                -7.239410400390625,
                -2.9802322387695312e-08,
                0.056478142738342285
            ],
            "type" : "VEC3"
        },
        {
            "bufferView" : 16,
            "componentType" : 5126,
            "count" : 1440,
            "type" : "VEC3"
        },
        {
            "bufferView" : 17,
            "componentType" : 5126,
            "count" : 1440,
            "type" : "VEC2"
        },
        {
            "bufferView" : 18,
            "componentType" : 5123,
            "count" : 7200,
            "type" : "SCALAR"
        },
        {
            "bufferView" : 20,
            "componentType" : 5126,
            "count" : 243,
            "max" : [
                -6.688429355621338,
                1.394129991531372,
                7.1318817138671875
            ],
            "min" : [
                -7.058710098266602,
                0.17940184473991394,
                6.7551727294921875
            ],
            "type" : "VEC3"
        },
        {
            "bufferView" : 21,
            "componentType" : 5126,
            "count" : 243,
            "type" : "VEC3"
        },
        {
            "bufferView" : 22,
            "componentType" : 5126,
            "count" : 243,
            "type" : "VEC2"
        },
        {
            "bufferView" : 23,
            "componentType" : 5123,
            "count" : 318,
            "type" : "SCALAR"
        },
        {
            "bufferView" : 25,
            "componentType" : 5126,
            "count" : 192,
            "max" : [
                -0.4305363893508911,
                1.5952918529510498,
                3.516502857208252
            ],
            "min" : [
                -3.594353675842285,
                0.3091067969799042,
                0.4220224618911743
            ],
            "type" : "VEC3"
        },
        {
            "bufferView" : 26,
            "componentType" : 5126,
            "count" : 192,
            "type" : "VEC3"
        },
        {
            "bufferView" : 27,
            "componentType" : 5126,
            "count" : 192,
            "type" : "VEC2"
        },
        {
            "bufferView" : 28,
            "componentType" : 5123,
            "count" : 552,
            "type" : "SCALAR"
        },
        {
            "bufferView" : 29,
            "componentType" : 5126,
            "count" : 216,
            "max" : [
                -0.13752317428588867,
                0.5929114818572998,
                7.254251956939697
            ],
            "min" : [
                -7.187936782836914,
                0.07463595271110535,
                0.1305985450744629
            ],
            "type" : "VEC3"
        },
        {
            "bufferView" : 30,
            "componentType" : 5126,
            "count" : 216,
            "type" : "VEC3"
        },
        {
            "bufferView" : 31,
            "componentType" : 5126,
            "count" : 216,
            "type" : "VEC2"
        },
        {
            "bufferView" : 32,
            "componentType" : 5123,
            "count" : 612,
            "type" : "SCALAR"
        },
        {
            "bufferView" : 34,
            "componentType" : 5126,
            "count" : 16,
            "max" : [
                -6.920812606811523,
                1.488168716430664,
                7.308709621429443
            ],
            "min" : [
                -7.231223106384277,
                0.952643871307373,
                6.992623805999756
            ],
            "type" : "VEC3"
        },
        {
            "bufferView" : 35,
            "componentType" : 5126,
            "count" : 16,
            "type" : "VEC3"
        },
        {
            "bufferView" : 36,
            "componentType" : 5126,
            "count" : 16,
            "type" : "VEC2"
        },
        {
            "bufferView" : 37,
            "componentType" : 5123,
            "count" : 24,
            "type" : "SCALAR"
        },
        {
            "bufferView" : 39,
            "componentType" : 5126,
            "count" : 40,
            "max" : [
                -6.712923526763916,
                0.9526433944702148,
                7.111184597015381
            ],
            "min" : [
                -7.041311264038086,
                0.7149901390075684,
                6.7830610275268555
            ],
            "type" : "VEC3"
        },
        {
            "bufferView" : 40,
            "componentType" : 5126,
            "count" : 40,
            "type" : "VEC3"
        },
        {
            "bufferView" : 41,
            "componentType" : 5126,
            "count" : 40,
            "type" : "VEC2"
        },
        {
            "bufferView" : 42,
            "componentType" : 5123,
            "count" : 60,
            "type" : "SCALAR"
        },
        {
            "bufferView" : 43,
            "componentType" : 5126,
            "count" : 52,
            "max" : [
                -0.4280937910079956,
                1.6965186595916748,
                7.199470520019531
            ],
            "min" : [
                -7.128675937652588,
                0.7388160228729248,
                0.4176276922225952
            ],
            "type" : "VEC3"
        },
        {
            "bufferView" : 44,
            "componentType" : 5126,
            "count" : 52,
            "type" : "VEC3"
        },
        {
            "bufferView" : 45,
            "componentType" : 5126,
            "count" : 52,
            "type" : "VEC2"
        },
        {
            "bufferView" : 46,
            "componentType" : 5123,
            "count" : 132,
            "type" : "SCALAR"
        }
    ],
    "bufferViews" : [
        {
            "buffer" : 0,
            "byteLength" : 26916,
            "byteOffset" : 0
        },
        {
            "buffer" : 0,
            "byteLength" : 26916,
            "byteOffset" : 26916
        },
        {
            "buffer" : 0,
            "byteLength" : 17944,
            "byteOffset" : 53832
        },
        {
            "buffer" : 0,
            "byteLength" : 12870,
            "byteOffset" : 71776
        },
        {
            "buffer" : 0,
            "byteLength" : 65377,
            "byteOffset" : 84648
        },
        {
            "buffer" : 0,
            "byteLength" : 26700,
            "byteOffset" : 150028
        },
        {
            "buffer" : 0,
            "byteLength" : 26700,
            "byteOffset" : 176728
        },
        {
            "buffer" : 0,
            "byteLength" : 17800,
            "byteOffset" : 203428
        },
        {
            "buffer" : 0,
            "byteLength" : 12954,
            "byteOffset" : 221228
        },
        {
            "buffer" : 0,
            "byteLength" : 65367,
            "byteOffset" : 234184
        },
        {
            "buffer" : 0,
            "byteLength" : 144,
            "byteOffset" : 299552
        },
        {
            "buffer" : 0,
            "byteLength" : 144,
            "byteOffset" : 299696
        },
        {
            "buffer" : 0,
            "byteLength" : 96,
            "byteOffset" : 299840
        },
        {
            "buffer" : 0,
            "byteLength" : 24,
            "byteOffset" : 299936
        },
        {
            "buffer" : 0,
            "byteLength" : 47631,
            "byteOffset" : 299960
        },
        {
            "buffer" : 0,
            "byteLength" : 17280,
            "byteOffset" : 347592
        },
        {
            "buffer" : 0,
            "byteLength" : 17280,
            "byteOffset" : 364872
        },
        {
            "buffer" : 0,
            "byteLength" : 11520,
            "byteOffset" : 382152
        },
        {
            "buffer" : 0,
            "byteLength" : 14400,
            "byteOffset" : 393672
        },
        {
            "buffer" : 0,
            "byteLength" : 39894,
            "byteOffset" : 408072
        },
        {
            "buffer" : 0,
            "byteLength" : 2916,
            "byteOffset" : 447968
        },
        {
            "buffer" : 0,
            "byteLength" : 2916,
            "byteOffset" : 450884
        },
        {
            "buffer" : 0,
            "byteLength" : 1944,
            "byteOffset" : 453800
        },
        {
            "buffer" : 0,
            "byteLength" : 636,
            "byteOffset" : 455744
        },
        {
            "buffer" : 0,
            "byteLength" : 16566,
            "byteOffset" : 456380
        },
        {
            "buffer" : 0,
            "byteLength" : 2304,
            "byteOffset" : 472948
        },
        {
            "buffer" : 0,
            "byteLength" : 2304,
            "byteOffset" : 475252
        },
        {
            "buffer" : 0,
            "byteLength" : 1536,
            "byteOffset" : 477556
        },
        {
            "buffer" : 0,
            "byteLength" : 1104,
            "byteOffset" : 479092
        },
        {
            "buffer" : 0,
            "byteLength" : 2592,
            "byteOffset" : 480196
        },
        {
            "buffer" : 0,
            "byteLength" : 2592,
            "byteOffset" : 482788
        },
        {
            "buffer" : 0,
            "byteLength" : 1728,
            "byteOffset" : 485380
        },
        {
            "buffer" : 0,
            "byteLength" : 1224,
            "byteOffset" : 487108
        },
        {
            "buffer" : 0,
            "byteLength" : 27121,
            "byteOffset" : 488332
        },
        {
            "buffer" : 0,
            "byteLength" : 192,
            "byteOffset" : 515456
        },
        {
            "buffer" : 0,
            "byteLength" : 192,
            "byteOffset" : 515648
        },
        {
            "buffer" : 0,
            "byteLength" : 128,
            "byteOffset" : 515840
        },
        {
            "buffer" : 0,
            "byteLength" : 48,
            "byteOffset" : 515968
        },
        {
            "buffer" : 0,
            "byteLength" : 1199,
            "byteOffset" : 516016
        },
        {
            "buffer" : 0,
            "byteLength" : 480,
            "byteOffset" : 517216
        },
        {
            "buffer" : 0,
            "byteLength" : 480,
            "byteOffset" : 517696
        },
        {
            "buffer" : 0,
            "byteLength" : 320,
            "byteOffset" : 518176
        },
        {
            "buffer" : 0,
            "byteLength" : 120,
            "byteOffset" : 518496
        },
        {
            "buffer" : 0,
            "byteLength" : 624,
            "byteOffset" : 518616
        },
        {
            "buffer" : 0,
            "byteLength" : 624,
            "byteOffset" : 519240
        },
        {
            "buffer" : 0,
            "byteLength" : 416,
            "byteOffset" : 519864
        },
        {
            "buffer" : 0,
            "byteLength" : 264,
            "byteOffset" : 520280
        },
        {
            "buffer" : 0,
            "byteLength" : 82585,
            "byteOffset" : 520544
        }
    ],
    "samplers" : [
        {
            "magFilter" : 9729,
            "minFilter" : 9987
        }
    ],
    "buffers" : [
        {
            "byteLength" : 603132,
            "uri" : "data:application/octet-stream;base64,"
        }
    ]
}
